<svg width="102" height="103" viewBox="0 0 102 103" fill="none" xmlns="http://www.w3.org/2000/svg">
<rect x="0.724609" y="0.552734" width="100.97" height="102.135" rx="7.56119" stroke="#259F83" stroke-width="0.540084"/>
<path d="M64.1582 70.0499L64.1708 70.0424L64.182 70.033L66.7229 67.8954L69.7101 65.5745C70.705 66.6292 71.3672 67.6016 71.759 68.4725C72.2535 69.5717 72.3125 70.4975 72.0827 71.2232C71.8535 71.9472 71.3294 72.4956 70.6097 72.83C68.7973 73.672 65.7272 73.1323 63.3043 70.5415C63.5971 70.3785 63.8821 70.2144 64.1582 70.0499ZM50.3689 66.9061C54.2682 66.9061 57.1511 66.46 59.7833 64.0166C60.3546 66.8054 61.4353 68.9203 62.7372 70.4417C59.2248 72.3364 54.6941 73.9934 50.5897 73.9934C41.3511 73.9934 33.9782 68.4518 28.9024 62.8811C26.3666 60.0981 24.4103 57.3142 23.0879 55.226C22.4268 54.182 21.9244 53.3123 21.5876 52.7041C21.4191 52.4 21.2921 52.1613 21.2073 51.9989C21.1705 51.9283 21.1416 51.8722 21.1208 51.8313C21.1416 51.7905 21.1705 51.7343 21.2073 51.6637C21.2921 51.5013 21.4191 51.2626 21.5876 50.9585C21.9244 50.3503 22.4268 49.4807 23.0879 48.4367C24.4103 46.3484 26.3666 43.5646 28.9024 40.7815C33.9782 35.2108 41.3511 29.6693 50.5897 29.6693C59.6062 29.6693 66.8684 35.2093 71.8899 40.7808C74.3983 43.564 76.3409 46.3479 77.6566 48.4363C78.3142 49.4804 78.8149 50.3501 79.151 50.9584C79.319 51.2625 79.4458 51.5012 79.5305 51.6636C79.5667 51.7331 79.5952 51.7885 79.6159 51.8292L79.6156 51.8298C79.5865 51.8842 79.5429 51.9649 79.4851 52.0701C79.3695 52.2804 79.1973 52.5881 78.971 52.9768C78.5185 53.7542 77.8501 54.8554 76.9877 56.1487C75.2762 58.7153 72.8027 62.0353 69.7372 65.0832C68.2083 63.5226 65.9904 61.8117 62.9171 60.0034C64.4102 57.653 65.2738 54.8496 65.2738 51.8313C65.2738 43.5423 58.6431 36.7566 50.3689 36.7566C42.1688 36.7566 35.464 43.5418 35.464 51.8313C35.464 60.196 42.1694 66.9061 50.3689 66.9061ZM43.1865 51.8313C43.1865 47.8328 46.4209 44.564 50.3689 44.564C50.936 44.564 51.4594 44.7027 51.991 44.8745C50.9426 45.5445 50.1888 46.6976 50.1888 48.1076C50.1888 50.2904 51.8872 52.0114 54.0501 52.0114C55.4308 52.0114 56.5611 51.2648 57.2262 50.224C57.2472 50.2985 57.2687 50.373 57.2901 50.4469C57.3254 50.569 57.3603 50.6897 57.3917 50.8072C57.4823 51.1461 57.5513 51.4821 57.5513 51.8313C57.5513 55.8299 54.3168 59.0986 50.3689 59.0986C46.4209 59.0986 43.1865 55.8299 43.1865 51.8313Z" fill="#259F83" stroke="#259F83" stroke-width="0.360056"/>
</svg>
