<svg width="166" height="54" viewBox="0 0 166 54" fill="none" xmlns="http://www.w3.org/2000/svg">
<g clip-path="url(#clip0_905_4)">
<rect width="166" height="54" fill="white"/>
<path d="M65.2383 45.7969H62.2061V44.8477H65.2383C65.8652 44.8477 66.3721 44.7246 66.7588 44.4785C67.1455 44.2266 67.4268 43.8896 67.6025 43.4678C67.7842 43.04 67.875 42.5625 67.875 42.0352C67.875 41.5195 67.7842 41.042 67.6025 40.6025C67.4268 40.1631 67.1455 39.8115 66.7588 39.5479C66.3721 39.2783 65.8652 39.1436 65.2383 39.1436H62.5312V51H61.5205V38.2031H65.2383C66.0293 38.2031 66.6943 38.3643 67.2334 38.6865C67.7783 39.0088 68.1885 39.457 68.4639 40.0312C68.7451 40.6055 68.8857 41.2705 68.8857 42.0264C68.8857 42.8115 68.7451 43.4883 68.4639 44.0566C68.1885 44.6191 67.7783 45.0498 67.2334 45.3486C66.6943 45.6475 66.0293 45.7969 65.2383 45.7969Z" fill="black"/>
<path d="M70.2852 37.5V51H69.3096V37.5H70.2852ZM70.0654 45.6562L69.6348 45.4014C69.6582 44.8389 69.749 44.3115 69.9072 43.8193C70.0713 43.3271 70.2939 42.8936 70.5752 42.5186C70.8564 42.1377 71.1875 41.8418 71.5684 41.6309C71.9492 41.4199 72.3711 41.3145 72.834 41.3145C73.2266 41.3145 73.5811 41.3789 73.8975 41.5078C74.2139 41.6367 74.4805 41.8389 74.6973 42.1143C74.9199 42.3896 75.0898 42.75 75.207 43.1953C75.3242 43.6406 75.3828 44.1768 75.3828 44.8037V51H74.4072V44.7949C74.4072 44.1445 74.334 43.6348 74.1875 43.2656C74.041 42.8965 73.8301 42.6357 73.5547 42.4834C73.2852 42.3252 72.96 42.2461 72.5791 42.2461C72.1748 42.2461 71.8174 42.3545 71.5068 42.5713C71.2021 42.7881 70.9414 43.0693 70.7246 43.415C70.5137 43.7607 70.3525 44.1328 70.2412 44.5312C70.1299 44.9238 70.0713 45.2988 70.0654 45.6562Z" fill="black"/>
<path d="M81.1436 49.2949V44.1182C81.1436 43.6729 81.0674 43.3125 80.915 43.0371C80.7627 42.7559 80.54 42.5508 80.2471 42.4219C79.9541 42.293 79.5938 42.2285 79.166 42.2285C78.7617 42.2285 78.4014 42.3105 78.085 42.4746C77.7744 42.6328 77.5312 42.8555 77.3555 43.1426C77.1855 43.4238 77.1006 43.749 77.1006 44.1182L76.125 44.1094C76.125 43.7461 76.1982 43.3975 76.3447 43.0635C76.4912 42.7236 76.6992 42.4248 76.9688 42.167C77.2383 41.9033 77.5605 41.6953 77.9355 41.543C78.3164 41.3906 78.7383 41.3145 79.2012 41.3145C79.7695 41.3145 80.2734 41.4053 80.7129 41.5869C81.1523 41.7686 81.4951 42.0674 81.7412 42.4834C81.9932 42.8994 82.1191 43.4502 82.1191 44.1357V48.9961C82.1191 49.3301 82.1396 49.6729 82.1807 50.0244C82.2275 50.376 82.2891 50.6631 82.3652 50.8857V51H81.3281C81.2637 50.7949 81.2168 50.5342 81.1875 50.2178C81.1582 49.8955 81.1436 49.5879 81.1436 49.2949ZM81.3457 45.4453L81.3721 46.2803H79.6846C79.2275 46.2803 78.8262 46.3301 78.4805 46.4297C78.1348 46.5293 77.8447 46.6729 77.6104 46.8604C77.3818 47.0479 77.209 47.2705 77.0918 47.5283C76.9746 47.7861 76.916 48.0791 76.916 48.4072C76.916 48.8291 76.9834 49.1748 77.1182 49.4443C77.2529 49.708 77.4492 49.9043 77.707 50.0332C77.9707 50.1562 78.2842 50.2178 78.6475 50.2178C79.1279 50.2178 79.5498 50.124 79.9131 49.9365C80.2822 49.7432 80.584 49.4883 80.8184 49.1719C81.0527 48.8496 81.2051 48.5098 81.2754 48.1523L81.5391 48.75C81.4805 49.0195 81.3721 49.2949 81.2139 49.5762C81.0557 49.8574 80.8506 50.1211 80.5986 50.3672C80.3467 50.6074 80.0479 50.8037 79.7021 50.9561C79.3564 51.1084 78.9668 51.1846 78.5332 51.1846C78.0117 51.1846 77.5547 51.085 77.1621 50.8857C76.7754 50.6865 76.4736 50.3848 76.2568 49.9805C76.0459 49.5762 75.9404 49.0781 75.9404 48.4863C75.9404 48.0469 76.0137 47.6426 76.1602 47.2734C76.3125 46.9043 76.5381 46.585 76.8369 46.3154C77.1357 46.04 77.5107 45.8262 77.9619 45.6738C78.4131 45.5215 78.9375 45.4453 79.5352 45.4453H81.3457Z" fill="black"/>
<path d="M105.144 49.2949V44.1182C105.144 43.6729 105.067 43.3125 104.915 43.0371C104.763 42.7559 104.54 42.5508 104.247 42.4219C103.954 42.293 103.594 42.2285 103.166 42.2285C102.762 42.2285 102.401 42.3105 102.085 42.4746C101.774 42.6328 101.531 42.8555 101.355 43.1426C101.186 43.4238 101.101 43.749 101.101 44.1182L100.125 44.1094C100.125 43.7461 100.198 43.3975 100.345 43.0635C100.491 42.7236 100.699 42.4248 100.969 42.167C101.238 41.9033 101.561 41.6953 101.936 41.543C102.316 41.3906 102.738 41.3145 103.201 41.3145C103.77 41.3145 104.273 41.4053 104.713 41.5869C105.152 41.7686 105.495 42.0674 105.741 42.4834C105.993 42.8994 106.119 43.4502 106.119 44.1357V48.9961C106.119 49.3301 106.14 49.6729 106.181 50.0244C106.228 50.376 106.289 50.6631 106.365 50.8857V51H105.328C105.264 50.7949 105.217 50.5342 105.188 50.2178C105.158 49.8955 105.144 49.5879 105.144 49.2949ZM105.346 45.4453L105.372 46.2803H103.685C103.228 46.2803 102.826 46.3301 102.48 46.4297C102.135 46.5293 101.845 46.6729 101.61 46.8604C101.382 47.0479 101.209 47.2705 101.092 47.5283C100.975 47.7861 100.916 48.0791 100.916 48.4072C100.916 48.8291 100.983 49.1748 101.118 49.4443C101.253 49.708 101.449 49.9043 101.707 50.0332C101.971 50.1562 102.284 50.2178 102.647 50.2178C103.128 50.2178 103.55 50.124 103.913 49.9365C104.282 49.7432 104.584 49.4883 104.818 49.1719C105.053 48.8496 105.205 48.5098 105.275 48.1523L105.539 48.75C105.48 49.0195 105.372 49.2949 105.214 49.5762C105.056 49.8574 104.851 50.1211 104.599 50.3672C104.347 50.6074 104.048 50.8037 103.702 50.9561C103.356 51.1084 102.967 51.1846 102.533 51.1846C102.012 51.1846 101.555 51.085 101.162 50.8857C100.775 50.6865 100.474 50.3848 100.257 49.9805C100.046 49.5762 99.9404 49.0781 99.9404 48.4863C99.9404 48.0469 100.014 47.6426 100.16 47.2734C100.312 46.9043 100.538 46.585 100.837 46.3154C101.136 46.04 101.511 45.8262 101.962 45.6738C102.413 45.5215 102.938 45.4453 103.535 45.4453H105.346Z" fill="black"/>
<path d="M110.307 50.2617C110.67 50.2617 111.01 50.1943 111.326 50.0596C111.648 49.9248 111.912 49.6963 112.117 49.374C112.322 49.0518 112.439 48.6094 112.469 48.0469H113.4C113.377 48.7266 113.222 49.3008 112.935 49.7695C112.647 50.2324 112.275 50.584 111.818 50.8242C111.361 51.0645 110.857 51.1846 110.307 51.1846C109.738 51.1846 109.24 51.0908 108.812 50.9033C108.385 50.7158 108.027 50.4375 107.74 50.0684C107.453 49.6934 107.236 49.2334 107.09 48.6885C106.943 48.1377 106.87 47.502 106.87 46.7812V45.7002C106.87 44.9854 106.943 44.3555 107.09 43.8105C107.236 43.2598 107.453 42.7998 107.74 42.4307C108.027 42.0615 108.385 41.7832 108.812 41.5957C109.24 41.4082 109.738 41.3145 110.307 41.3145C110.887 41.3145 111.405 41.4375 111.862 41.6836C112.319 41.9238 112.683 42.293 112.952 42.791C113.228 43.2891 113.377 43.9248 113.4 44.6982H112.469C112.445 44.1064 112.334 43.6318 112.135 43.2744C111.941 42.9111 111.687 42.6475 111.37 42.4834C111.054 42.3135 110.699 42.2285 110.307 42.2285C109.855 42.2285 109.472 42.3076 109.155 42.4658C108.845 42.6182 108.593 42.8438 108.399 43.1426C108.206 43.4414 108.065 43.8047 107.978 44.2324C107.89 44.6602 107.846 45.1494 107.846 45.7002V46.7812C107.846 47.3379 107.89 47.833 107.978 48.2666C108.065 48.7002 108.206 49.0664 108.399 49.3652C108.599 49.6582 108.854 49.8809 109.164 50.0332C109.48 50.1855 109.861 50.2617 110.307 50.2617Z" fill="black"/>
<path d="M116.656 50.042L119.1 41.4902H120.146L116.797 52.5205C116.727 52.7373 116.636 52.9775 116.524 53.2412C116.419 53.5107 116.278 53.7656 116.103 54.0059C115.933 54.252 115.719 54.4512 115.461 54.6035C115.209 54.7617 114.901 54.8408 114.538 54.8408C114.444 54.8408 114.321 54.8262 114.169 54.7969C114.017 54.7734 113.908 54.75 113.844 54.7266L113.835 53.8301C113.888 53.8418 113.964 53.8535 114.063 53.8652C114.163 53.877 114.233 53.8828 114.274 53.8828C114.591 53.8828 114.857 53.8184 115.074 53.6895C115.291 53.5605 115.473 53.3672 115.619 53.1094C115.771 52.8574 115.903 52.5439 116.015 52.1689L116.656 50.042ZM114.477 41.4902L116.92 49.6289L117.184 50.7451L116.472 51.1846L113.404 41.4902H114.477Z" fill="black"/>
<path d="M84.2852 43.0547V51H83.3096V41.4902H84.2588L84.2852 43.0547ZM87.0537 41.4287L87.0273 42.4043C86.9219 42.3809 86.8223 42.3662 86.7285 42.3604C86.6348 42.3486 86.5322 42.3428 86.4209 42.3428C86.0518 42.3428 85.7295 42.4248 85.4541 42.5889C85.1787 42.7529 84.9443 42.9844 84.751 43.2832C84.5635 43.5762 84.417 43.9189 84.3115 44.3115C84.2119 44.6982 84.1533 45.1172 84.1357 45.5684L83.793 45.7178C83.793 45.1025 83.8457 44.5283 83.9512 43.9951C84.0566 43.4619 84.2178 42.9932 84.4346 42.5889C84.6572 42.1846 84.9355 41.8711 85.2695 41.6484C85.6094 41.4258 86.0078 41.3145 86.4648 41.3145C86.5703 41.3145 86.6787 41.3262 86.79 41.3496C86.9072 41.3672 86.9951 41.3936 87.0537 41.4287Z" fill="black"/>
<path d="M88.75 43.4414V51H87.7656V41.4902H88.7061L88.75 43.4414ZM88.5654 45.6562L88.0996 45.4014C88.123 44.8389 88.208 44.3115 88.3545 43.8193C88.5068 43.3271 88.7148 42.8936 88.9785 42.5186C89.248 42.1377 89.5762 41.8418 89.9629 41.6309C90.3496 41.4199 90.7891 41.3145 91.2812 41.3145C91.668 41.3145 92.0166 41.3789 92.3271 41.5078C92.6436 41.6309 92.916 41.8271 93.1445 42.0967C93.373 42.3604 93.5488 42.7061 93.6719 43.1338C93.7949 43.5557 93.8564 44.0684 93.8564 44.6719V51H92.8809V44.707C92.8809 44.0801 92.7988 43.5879 92.6348 43.2305C92.4766 42.873 92.2539 42.6211 91.9668 42.4746C91.6855 42.3223 91.3545 42.2461 90.9736 42.2461C90.5342 42.2461 90.1621 42.3545 89.8574 42.5713C89.5527 42.7881 89.3066 43.0693 89.1191 43.415C88.9375 43.7607 88.8027 44.1328 88.7148 44.5312C88.627 44.9238 88.5771 45.2988 88.5654 45.6562ZM93.8477 44.8301L93.1885 44.8652C93.2119 44.4023 93.2998 43.96 93.4521 43.5381C93.6045 43.1104 93.8154 42.7324 94.085 42.4043C94.3545 42.0703 94.6768 41.8066 95.0518 41.6133C95.4326 41.4141 95.8633 41.3145 96.3438 41.3145C96.7598 41.3145 97.1318 41.3818 97.46 41.5166C97.7881 41.6455 98.0635 41.8506 98.2861 42.1318C98.5146 42.4131 98.6875 42.7734 98.8047 43.2129C98.9219 43.6523 98.9805 44.1797 98.9805 44.7949V51H97.9961V44.7861C97.9961 44.124 97.9141 43.6084 97.75 43.2393C97.5918 42.8701 97.3691 42.6123 97.082 42.4658C96.8008 42.3135 96.4727 42.2402 96.0977 42.2461C95.7285 42.2461 95.4033 42.3281 95.1221 42.4922C94.8467 42.6562 94.6152 42.8672 94.4277 43.125C94.2461 43.377 94.1055 43.6553 94.0059 43.96C93.9121 44.2588 93.8594 44.5488 93.8477 44.8301Z" fill="black"/>
<path d="M128.532 47.8359C128.532 47.4902 128.485 47.1826 128.392 46.9131C128.298 46.6377 128.143 46.3916 127.926 46.1748C127.709 45.958 127.413 45.7559 127.038 45.5684C126.669 45.375 126.212 45.1846 125.667 44.9971C125.128 44.8154 124.642 44.6162 124.208 44.3994C123.78 44.1826 123.411 43.9336 123.101 43.6523C122.796 43.3711 122.562 43.043 122.397 42.668C122.239 42.293 122.16 41.8535 122.16 41.3496C122.16 40.8516 122.248 40.4004 122.424 39.9961C122.605 39.5859 122.857 39.2344 123.18 38.9414C123.502 38.6484 123.883 38.4229 124.322 38.2646C124.762 38.1064 125.248 38.0273 125.781 38.0273C126.543 38.0273 127.199 38.2002 127.75 38.5459C128.307 38.8857 128.734 39.3457 129.033 39.9258C129.332 40.5 129.481 41.1416 129.481 41.8506H128.479C128.479 41.2939 128.374 40.7988 128.163 40.3652C127.958 39.9316 127.653 39.5918 127.249 39.3457C126.851 39.0938 126.364 38.9678 125.79 38.9678C125.216 38.9678 124.732 39.0762 124.34 39.293C123.953 39.5039 123.663 39.7881 123.47 40.1455C123.276 40.4971 123.18 40.8867 123.18 41.3145C123.18 41.6191 123.227 41.9004 123.32 42.1582C123.414 42.416 123.569 42.6533 123.786 42.8701C124.009 43.0869 124.302 43.292 124.665 43.4854C125.028 43.6729 125.468 43.8486 125.983 44.0127C126.563 44.2002 127.073 44.4082 127.513 44.6367C127.958 44.8594 128.33 45.123 128.629 45.4277C128.934 45.7266 129.162 46.0723 129.314 46.4648C129.473 46.8574 129.552 47.3086 129.552 47.8184C129.552 48.3457 129.461 48.8174 129.279 49.2334C129.098 49.6436 128.84 49.9951 128.506 50.2881C128.172 50.5752 127.779 50.7949 127.328 50.9473C126.877 51.0996 126.379 51.1758 125.834 51.1758C125.359 51.1758 124.882 51.1025 124.401 50.9561C123.927 50.8096 123.493 50.5811 123.101 50.2705C122.714 49.96 122.403 49.5615 122.169 49.0752C121.935 48.5889 121.817 48.0088 121.817 47.335H122.828C122.828 47.8682 122.916 48.3223 123.092 48.6973C123.273 49.0664 123.508 49.3652 123.795 49.5938C124.082 49.8164 124.404 49.9805 124.762 50.0859C125.119 50.1855 125.479 50.2354 125.843 50.2354C126.394 50.2354 126.868 50.1357 127.267 49.9365C127.671 49.7373 127.981 49.459 128.198 49.1016C128.421 48.7383 128.532 48.3164 128.532 47.8359Z" fill="black"/>
<path d="M133.947 51.1846C133.42 51.1846 132.934 51.0996 132.488 50.9297C132.049 50.7539 131.668 50.4902 131.346 50.1387C131.029 49.7812 130.783 49.333 130.607 48.7939C130.432 48.249 130.344 47.6074 130.344 46.8691V45.7705C130.344 44.9854 130.438 44.3115 130.625 43.749C130.812 43.1807 131.064 42.7178 131.381 42.3604C131.703 41.9971 132.069 41.7334 132.479 41.5693C132.89 41.3994 133.323 41.3145 133.78 41.3145C134.302 41.3145 134.759 41.3994 135.151 41.5693C135.55 41.7393 135.884 41.9971 136.153 42.3428C136.423 42.6885 136.625 43.125 136.76 43.6523C136.895 44.1738 136.962 44.792 136.962 45.5068V46.3242H130.933V45.4102H135.986V45.1641C135.975 44.543 135.887 44.0156 135.723 43.582C135.564 43.1426 135.324 42.8086 135.002 42.5801C134.686 42.3457 134.281 42.2285 133.789 42.2285C133.426 42.2285 133.092 42.2959 132.787 42.4307C132.482 42.5596 132.219 42.7646 131.996 43.0459C131.779 43.3271 131.612 43.6934 131.495 44.1445C131.384 44.5957 131.328 45.1377 131.328 45.7705V46.8691C131.328 47.4492 131.39 47.9531 131.513 48.3809C131.642 48.8027 131.823 49.1543 132.058 49.4355C132.292 49.7109 132.573 49.9189 132.901 50.0596C133.229 50.1943 133.593 50.2617 133.991 50.2617C134.483 50.2617 134.914 50.1797 135.283 50.0156C135.652 49.8457 135.98 49.5908 136.268 49.251L136.786 49.9014C136.61 50.1299 136.394 50.3438 136.136 50.543C135.878 50.7363 135.57 50.8916 135.213 51.0088C134.855 51.126 134.434 51.1846 133.947 51.1846Z" fill="black"/>
<path d="M138.785 43.0547V51H137.81V41.4902H138.759L138.785 43.0547ZM141.554 41.4287L141.527 42.4043C141.422 42.3809 141.322 42.3662 141.229 42.3604C141.135 42.3486 141.032 42.3428 140.921 42.3428C140.552 42.3428 140.229 42.4248 139.954 42.5889C139.679 42.7529 139.444 42.9844 139.251 43.2832C139.063 43.5762 138.917 43.9189 138.812 44.3115C138.712 44.6982 138.653 45.1172 138.636 45.5684L138.293 45.7178C138.293 45.1025 138.346 44.5283 138.451 43.9951C138.557 43.4619 138.718 42.9932 138.935 42.5889C139.157 42.1846 139.436 41.8711 139.77 41.6484C140.109 41.4258 140.508 41.3145 140.965 41.3145C141.07 41.3145 141.179 41.3262 141.29 41.3496C141.407 41.3672 141.495 41.3936 141.554 41.4287Z" fill="black"/>
<path d="M154.807 50.2617C155.17 50.2617 155.51 50.1943 155.826 50.0596C156.148 49.9248 156.412 49.6963 156.617 49.374C156.822 49.0518 156.939 48.6094 156.969 48.0469H157.9C157.877 48.7266 157.722 49.3008 157.435 49.7695C157.147 50.2324 156.775 50.584 156.318 50.8242C155.861 51.0645 155.357 51.1846 154.807 51.1846C154.238 51.1846 153.74 51.0908 153.312 50.9033C152.885 50.7158 152.527 50.4375 152.24 50.0684C151.953 49.6934 151.736 49.2334 151.59 48.6885C151.443 48.1377 151.37 47.502 151.37 46.7812V45.7002C151.37 44.9854 151.443 44.3555 151.59 43.8105C151.736 43.2598 151.953 42.7998 152.24 42.4307C152.527 42.0615 152.885 41.7832 153.312 41.5957C153.74 41.4082 154.238 41.3145 154.807 41.3145C155.387 41.3145 155.905 41.4375 156.362 41.6836C156.819 41.9238 157.183 42.293 157.452 42.791C157.728 43.2891 157.877 43.9248 157.9 44.6982H156.969C156.945 44.1064 156.834 43.6318 156.635 43.2744C156.441 42.9111 156.187 42.6475 155.87 42.4834C155.554 42.3135 155.199 42.2285 154.807 42.2285C154.355 42.2285 153.972 42.3076 153.655 42.4658C153.345 42.6182 153.093 42.8438 152.899 43.1426C152.706 43.4414 152.565 43.8047 152.478 44.2324C152.39 44.6602 152.346 45.1494 152.346 45.7002V46.7812C152.346 47.3379 152.39 47.833 152.478 48.2666C152.565 48.7002 152.706 49.0664 152.899 49.3652C153.099 49.6582 153.354 49.8809 153.664 50.0332C153.98 50.1855 154.361 50.2617 154.807 50.2617Z" fill="black"/>
<path d="M161.947 51.1846C161.42 51.1846 160.934 51.0996 160.488 50.9297C160.049 50.7539 159.668 50.4902 159.346 50.1387C159.029 49.7812 158.783 49.333 158.607 48.7939C158.432 48.249 158.344 47.6074 158.344 46.8691V45.7705C158.344 44.9854 158.438 44.3115 158.625 43.749C158.812 43.1807 159.064 42.7178 159.381 42.3604C159.703 41.9971 160.069 41.7334 160.479 41.5693C160.89 41.3994 161.323 41.3145 161.78 41.3145C162.302 41.3145 162.759 41.3994 163.151 41.5693C163.55 41.7393 163.884 41.9971 164.153 42.3428C164.423 42.6885 164.625 43.125 164.76 43.6523C164.895 44.1738 164.962 44.792 164.962 45.5068V46.3242H158.933V45.4102H163.986V45.1641C163.975 44.543 163.887 44.0156 163.723 43.582C163.564 43.1426 163.324 42.8086 163.002 42.5801C162.686 42.3457 162.281 42.2285 161.789 42.2285C161.426 42.2285 161.092 42.2959 160.787 42.4307C160.482 42.5596 160.219 42.7646 159.996 43.0459C159.779 43.3271 159.612 43.6934 159.495 44.1445C159.384 44.5957 159.328 45.1377 159.328 45.7705V46.8691C159.328 47.4492 159.39 47.9531 159.513 48.3809C159.642 48.8027 159.823 49.1543 160.058 49.4355C160.292 49.7109 160.573 49.9189 160.901 50.0596C161.229 50.1943 161.593 50.2617 161.991 50.2617C162.483 50.2617 162.914 50.1797 163.283 50.0156C163.652 49.8457 163.98 49.5908 164.268 49.251L164.786 49.9014C164.61 50.1299 164.394 50.3438 164.136 50.543C163.878 50.7363 163.57 50.8916 163.213 51.0088C162.855 51.126 162.434 51.1846 161.947 51.1846Z" fill="black"/>
<path d="M145.183 49.9717L147.67 41.4902H148.672L145.719 51H145.007L145.183 49.9717ZM142.968 41.4902L145.49 49.9893L145.631 51H144.928L141.957 41.4902H142.968Z" fill="black"/>
<path d="M150.391 41.4902V51H149.415V41.4902H150.391ZM149.266 38.7568C149.266 38.5459 149.321 38.373 149.433 38.2383C149.55 38.0977 149.711 38.0273 149.916 38.0273C150.115 38.0273 150.271 38.0977 150.382 38.2383C150.499 38.373 150.558 38.5459 150.558 38.7568C150.558 38.9502 150.499 39.1143 150.382 39.249C150.271 39.3838 150.115 39.4512 149.916 39.4512C149.711 39.4512 149.55 39.3838 149.433 39.249C149.321 39.1143 149.266 38.9502 149.266 38.7568Z" fill="black"/>
<path d="M79.9101 3.14062H77.8501L72.5601 20.9406L67.2601 3.14062H65.1801H62.6601H60.8101V29.1606H65.8601V20.3006L65.5601 12.6406L70.6001 29.1606H74.5101L79.6001 11.2506L79.2601 20.3006V29.1606H84.3001V3.14062H81.9101H79.9101Z" fill="#ED1C24"/>
<path d="M99.25 11.8509C98.64 11.0609 97.88 10.4609 96.95 10.0609C96.03 9.66094 94.96 9.46094 93.74 9.46094C92.52 9.46094 91.44 9.66094 90.48 10.0609C89.52 10.4609 88.71 11.0609 88.06 11.8709C87.4 12.6809 86.9 13.6809 86.54 14.8609C86.18 16.0509 86 17.4209 86 19.0009V20.5909C86 22.0009 86.18 23.2509 86.55 24.3409C86.92 25.4409 87.46 26.3709 88.16 27.1409C88.86 27.9109 89.72 28.5009 90.74 28.9009C91.76 29.3009 92.93 29.5109 94.25 29.5109C95.36 29.5109 96.33 29.3709 97.18 29.0809C98.03 28.7909 98.75 28.4309 99.36 27.9709C99.97 27.5209 100.44 27.0609 100.79 26.6109L98.79 23.5709C98.29 24.1209 97.68 24.5509 96.98 24.8709C96.27 25.1909 95.48 25.3409 94.59 25.3409C94.01 25.3409 93.49 25.2609 93.05 25.1009C92.61 24.9409 92.24 24.6709 91.93 24.3009C91.62 23.9309 91.4 23.4409 91.24 22.8309C91.12 22.3609 91.05 21.7909 91.02 21.1409H101.07V18.8509C101.07 17.3009 100.92 15.9409 100.61 14.7809C100.3 13.6109 99.84 12.6309 99.23 11.8409L99.25 11.8509ZM96.18 17.6409H91.07C91.09 17.2509 91.13 16.8909 91.17 16.5609C91.27 15.8809 91.41 15.3209 91.62 14.8909C91.82 14.4609 92.1 14.1509 92.44 13.9409C92.79 13.7409 93.21 13.6409 93.71 13.6409C94.31 13.6409 94.78 13.7709 95.14 14.0309C95.5 14.2909 95.76 14.6909 95.93 15.2209C96.1 15.7509 96.18 16.4109 96.18 17.1909V17.6409Z" fill="#ED1C24"/>
<path d="M111.52 11.4209C111.13 10.9109 110.69 10.4809 110.19 10.1609C109.49 9.70094 108.69 9.47094 107.77 9.47094C106.76 9.47094 105.86 9.66094 105.08 10.0509C104.3 10.4409 103.64 11.0209 103.11 11.8109C102.57 12.6009 102.17 13.5809 101.9 14.7609C101.63 15.9409 101.5 17.3209 101.5 18.8909V20.1809C101.5 21.6909 101.63 23.0309 101.9 24.1909C102.17 25.3509 102.57 26.3309 103.1 27.1209C103.63 27.9109 104.29 28.5109 105.07 28.9209C105.85 29.3209 106.75 29.5309 107.76 29.5309C108.68 29.5309 109.48 29.3009 110.17 28.8409C110.79 28.4309 111.32 27.8709 111.78 27.1809L112.01 29.1909L116.55 29.1709V1.71094H111.53V11.4209H111.52ZM110.82 24.7909C110.4 25.1309 109.86 25.3009 109.19 25.3009C108.68 25.3009 108.25 25.2009 107.9 25.0109C107.55 24.8109 107.28 24.5109 107.07 24.1009C106.86 23.6909 106.71 23.1609 106.62 22.5109C106.53 21.8609 106.49 21.0809 106.49 20.1809V18.8909C106.49 17.9709 106.54 17.1809 106.64 16.5209C106.74 15.8609 106.89 15.3209 107.1 14.8909C107.3 14.4709 107.58 14.1509 107.93 13.9509C108.28 13.7509 108.71 13.6509 109.21 13.6509C109.67 13.6509 110.08 13.7509 110.43 13.9509C110.78 14.1509 111.08 14.4409 111.31 14.8109C111.38 14.9209 111.45 15.0409 111.51 15.1609V23.9209C111.32 24.2709 111.09 24.5609 110.81 24.7909H110.82Z" fill="#ED1C24"/>
<path d="M123.95 1.71094H118.71V29.1609H122.34H123.95H133.15V24.8409H123.95V1.71094Z" fill="#ED1C24"/>
<path d="M146.92 11.8509C146.31 11.0609 145.55 10.4609 144.62 10.0609C143.7 9.66094 142.63 9.46094 141.41 9.46094C140.19 9.46094 139.11 9.66094 138.15 10.0609C137.19 10.4609 136.38 11.0609 135.73 11.8709C135.07 12.6809 134.57 13.6809 134.21 14.8609C133.85 16.0509 133.67 17.4209 133.67 19.0009V20.5909C133.67 22.0009 133.85 23.2509 134.22 24.3409C134.59 25.4409 135.13 26.3709 135.83 27.1409C136.53 27.9109 137.39 28.5009 138.41 28.9009C139.43 29.3009 140.6 29.5109 141.92 29.5109C143.03 29.5109 144 29.3709 144.85 29.0809C145.7 28.7909 146.42 28.4309 147.03 27.9709C147.64 27.5209 148.11 27.0609 148.46 26.6109L146.46 23.5709C145.96 24.1209 145.35 24.5509 144.65 24.8709C143.94 25.1909 143.15 25.3409 142.26 25.3409C141.68 25.3409 141.16 25.2609 140.72 25.1009C140.28 24.9409 139.91 24.6709 139.6 24.3009C139.29 23.9309 139.07 23.4409 138.91 22.8309C138.79 22.3609 138.72 21.7909 138.69 21.1409H148.74V18.8509C148.74 17.3009 148.59 15.9409 148.28 14.7809C147.97 13.6109 147.51 12.6309 146.9 11.8409L146.92 11.8509ZM143.85 17.6409H138.74C138.76 17.2509 138.8 16.8909 138.84 16.5609C138.94 15.8809 139.08 15.3209 139.29 14.8909C139.49 14.4609 139.77 14.1509 140.11 13.9409C140.46 13.7409 140.88 13.6409 141.38 13.6409C141.98 13.6409 142.45 13.7709 142.81 14.0309C143.17 14.2909 143.43 14.6909 143.6 15.2209C143.77 15.7509 143.85 16.4109 143.85 17.1909V17.6409Z" fill="#ED1C24"/>
<path d="M164.51 14.7909C164.27 13.6209 163.89 12.6409 163.38 11.8509C162.87 11.0609 162.23 10.4709 161.44 10.0709C160.65 9.67094 159.71 9.47094 158.62 9.47094C157.67 9.47094 156.84 9.70094 156.15 10.1609C155.65 10.4909 155.22 10.9109 154.84 11.4209V1.71094H149.85V29.1609H154.48L154.63 27.2309C155.06 27.9009 155.57 28.4409 156.17 28.8309C156.86 29.2909 157.69 29.5209 158.65 29.5209C159.72 29.5209 160.65 29.3209 161.44 28.9309C162.23 28.5409 162.87 27.9509 163.38 27.1609C163.89 26.3709 164.26 25.4009 164.51 24.2309C164.75 23.0609 164.88 21.6909 164.88 20.1209V18.8509C164.88 17.3109 164.76 15.9609 164.51 14.7809V14.7909ZM159.89 20.1209C159.89 21.0609 159.86 21.8609 159.79 22.5209C159.72 23.1809 159.59 23.7209 159.4 24.1409C159.2 24.5609 158.93 24.8609 158.59 25.0509C158.24 25.2409 157.79 25.3409 157.23 25.3409C156.52 25.3409 155.95 25.1709 155.52 24.8209C155.24 24.5909 155.01 24.2909 154.83 23.9309V15.1409C154.89 15.0309 154.95 14.9109 155.02 14.8109C155.26 14.4309 155.56 14.1509 155.9 13.9509C156.25 13.7509 156.67 13.6609 157.19 13.6609C157.76 13.6609 158.22 13.7709 158.57 13.9809C158.92 14.1909 159.19 14.5209 159.38 14.9409C159.57 15.3709 159.7 15.9009 159.77 16.5509C159.84 17.1909 159.88 17.9609 159.88 18.8609V20.1309L159.89 20.1209Z" fill="#ED1C24"/>
<path d="M9.60988 2.25977H41.1599C45.8399 2.25977 49.6499 6.05977 49.6499 10.7498V50.7898H1.12988V10.7498C1.12988 6.05977 4.92988 2.25977 9.60988 2.25977Z" fill="#ED1C24"/>
<path d="M9.60988 2.25977H41.1599C45.8399 2.25977 49.6499 6.05977 49.6499 10.7498V50.7898H1.12988V10.7498C1.12988 6.05977 4.92988 2.25977 9.60988 2.25977Z" stroke="#ED1C24" stroke-width="1.7" stroke-miterlimit="10"/>
<path d="M49.6599 26.5195H1.12988V50.7795H49.6599V26.5195Z" fill="white"/>
<path d="M10.8398 14.5792L10.8398 38.8492C10.8398 41.5278 13.0113 43.6992 15.6898 43.6992H15.6998C18.3784 43.6992 20.5498 41.5278 20.5498 38.8492V14.5792C20.5498 11.9006 18.3784 9.72922 15.6998 9.72922H15.6898C13.0113 9.72922 10.8398 11.9006 10.8398 14.5792Z" fill="white"/>
<path d="M15.7 44.3398C12.67 44.3398 10.21 41.8798 10.21 38.8498V14.5798C10.21 11.5498 12.67 9.08984 15.7 9.08984C18.73 9.08984 21.19 11.5498 21.19 14.5798V38.8398C21.19 41.8698 18.73 44.3298 15.7 44.3298V44.3398ZM15.7 10.3698C13.38 10.3698 11.48 12.2598 11.48 14.5898V38.8498C11.48 41.1698 13.37 43.0698 15.7 43.0698C18.03 43.0698 19.92 41.1798 19.92 38.8498V14.5798C19.92 12.2598 18.03 10.3598 15.7 10.3598V10.3698Z" fill="#121212"/>
<path d="M31.2998 14.5792L31.2998 38.8492C31.2998 41.5278 33.4712 43.6992 36.1498 43.6992H36.1598C38.8384 43.6992 41.0098 41.5278 41.0098 38.8492V14.5792C41.0098 11.9006 38.8384 9.72922 36.1598 9.72922H36.1498C33.4712 9.72922 31.2998 11.9006 31.2998 14.5792Z" fill="white"/>
<path d="M36.1499 44.3398C33.1199 44.3398 30.6599 41.8798 30.6599 38.8498V14.5798C30.6599 11.5498 33.1199 9.08984 36.1499 9.08984C39.1799 9.08984 41.6399 11.5498 41.6399 14.5798V38.8398C41.6399 41.8698 39.1799 44.3298 36.1499 44.3298V44.3398ZM36.1499 10.3698C33.8299 10.3698 31.9299 12.2598 31.9299 14.5898V38.8498C31.9299 41.1698 33.8199 43.0698 36.1499 43.0698C38.4799 43.0698 40.3699 41.1798 40.3699 38.8498V14.5798C40.3699 12.2598 38.4799 10.3598 36.1499 10.3598V10.3698Z" fill="#121212"/>
<path d="M33.3098 26.5195V38.6495C33.3098 41.3295 35.4798 43.4995 38.1598 43.4995C40.8398 43.4995 43.0098 41.3295 43.0098 38.6495V26.5195H33.2998H33.3098Z" fill="#00A54F"/>
<path d="M12.8498 38.6593C12.8498 41.3393 15.0198 43.5093 17.6998 43.5093C20.3798 43.5093 22.5498 41.3393 22.5498 38.6593V26.5293H12.8398V38.6593H12.8498Z" fill="#00A54F"/>
</g>
<defs>
<clipPath id="clip0_905_4">
<rect width="166" height="54" fill="white"/>
</clipPath>
</defs>
</svg>
