<?xml version="1.0" encoding="UTF-8"?>
<svg id="Layer_1" data-name="Layer 1" xmlns="http://www.w3.org/2000/svg" viewBox="0 0 1024 1024">
  <defs>
    <style>
      .cls-1 {
        fill: #141414;
      }

      .cls-1, .cls-2, .cls-3, .cls-4 {
        stroke-width: 0px;
      }

      .cls-2 {
        fill: #ec2227;
      }

      .cls-3 {
        fill: #05a54e;
      }

      .cls-4 {
        fill: #fff;
      }
    </style>
  </defs>
  <rect class="cls-4" y="512" width="1024" height="512"/>
  <rect class="cls-2" x="-32.1" y="-52.99" width="1110.88" height="564.99"/>
  <g>
    <rect class="cls-4" x="-4.58" y="421.73" width="657.68" height="187.91" rx="93.95" ry="93.95" transform="translate(-191.42 839.95) rotate(-90)"/>
    <path class="cls-1" d="M324.26,856.85c-58.6,0-106.28-47.68-106.28-106.28v-469.77c0-58.6,47.68-106.28,106.28-106.28s106.28,47.68,106.28,106.28v469.77c0,58.6-47.68,106.28-106.28,106.28ZM324.26,199.17c-45.01,0-81.63,36.62-81.63,81.63v469.77c0,45.01,36.62,81.63,81.63,81.63s81.63-36.62,81.63-81.63v-469.77c0-45.01-36.62-81.63-81.63-81.63Z"/>
  </g>
  <g>
    <rect class="cls-4" x="391.48" y="421.73" width="657.68" height="187.91" rx="93.95" ry="93.95" transform="translate(204.63 1236) rotate(-90)"/>
    <path class="cls-1" d="M720.32,856.85c-58.6,0-106.28-47.68-106.28-106.28v-469.77c0-58.6,47.68-106.28,106.28-106.28s106.28,47.68,106.28,106.28v469.77c0,58.6-47.68,106.28-106.28,106.28ZM720.32,199.17c-45.01,0-81.63,36.62-81.63,81.63v469.77c0,45.01,36.62,81.63,81.63,81.63s81.63-36.62,81.63-81.63v-469.77c0-45.01-36.62-81.63-81.63-81.63Z"/>
  </g>
  <path class="cls-3" d="M665.29,512v234.88c0,51.89,42.06,93.95,93.95,93.95h0c51.89,0,93.95-42.07,93.95-93.95v-234.88h-187.91Z"/>
  <path class="cls-3" d="M269.24,746.89c0,51.89,42.06,93.95,93.95,93.95h0c51.89,0,93.95-42.06,93.95-93.95v-234.89h-187.91v234.89Z"/>
</svg>